<mxfile host="65bd71144e">
    <diagram name="Page-1" id="h6VWxq3FugSWKBF0tI8A">
        <mxGraphModel dx="775" dy="422" grid="1" gridSize="10" guides="1" tooltips="1" connect="1" arrows="1" fold="1" page="1" pageScale="1" pageWidth="850" pageHeight="1100" math="0" shadow="0">
            <root>
                <mxCell id="0"/>
                <mxCell id="1" parent="0"/>
                <mxCell id="EN4MdzZvorRHUhUFWQZ9-6" value="" style="endArrow=none;html=1;rounded=0;dashed=1;" parent="1" edge="1">
                    <mxGeometry width="50" height="50" relative="1" as="geometry">
                        <mxPoint x="240" y="490" as="sourcePoint"/>
                        <mxPoint x="240" y="250" as="targetPoint"/>
                    </mxGeometry>
                </mxCell>
                <mxCell id="EN4MdzZvorRHUhUFWQZ9-7" value="" style="endArrow=none;html=1;rounded=0;dashed=1;" parent="1" edge="1">
                    <mxGeometry width="50" height="50" relative="1" as="geometry">
                        <mxPoint x="480" y="490" as="sourcePoint"/>
                        <mxPoint x="480" y="250" as="targetPoint"/>
                    </mxGeometry>
                </mxCell>
                <mxCell id="EN4MdzZvorRHUhUFWQZ9-11" value="55px" style="edgeLabel;html=1;align=center;verticalAlign=middle;resizable=0;points=[];" parent="EN4MdzZvorRHUhUFWQZ9-7" vertex="1" connectable="0">
                    <mxGeometry x="0.0617" y="-1" relative="1" as="geometry">
                        <mxPoint x="19" as="offset"/>
                    </mxGeometry>
                </mxCell>
                <mxCell id="EN4MdzZvorRHUhUFWQZ9-8" value="" style="endArrow=none;html=1;rounded=0;dashed=1;" parent="1" edge="1">
                    <mxGeometry width="50" height="50" relative="1" as="geometry">
                        <mxPoint x="240" y="250" as="sourcePoint"/>
                        <mxPoint x="480" y="250" as="targetPoint"/>
                    </mxGeometry>
                </mxCell>
                <mxCell id="EN4MdzZvorRHUhUFWQZ9-10" value="56px" style="edgeLabel;html=1;align=center;verticalAlign=middle;resizable=0;points=[];" parent="EN4MdzZvorRHUhUFWQZ9-8" vertex="1" connectable="0">
                    <mxGeometry x="0.0107" y="1" relative="1" as="geometry">
                        <mxPoint x="-1" y="-9" as="offset"/>
                    </mxGeometry>
                </mxCell>
                <mxCell id="EN4MdzZvorRHUhUFWQZ9-9" value="" style="endArrow=none;html=1;rounded=0;dashed=1;" parent="1" edge="1">
                    <mxGeometry width="50" height="50" relative="1" as="geometry">
                        <mxPoint x="240" y="490" as="sourcePoint"/>
                        <mxPoint x="480" y="490" as="targetPoint"/>
                    </mxGeometry>
                </mxCell>
                <mxCell id="EN4MdzZvorRHUhUFWQZ9-13" value="" style="endArrow=none;html=1;rounded=0;" parent="1" edge="1">
                    <mxGeometry width="50" height="50" relative="1" as="geometry">
                        <mxPoint x="240" y="280" as="sourcePoint"/>
                        <mxPoint x="420" y="280" as="targetPoint"/>
                    </mxGeometry>
                </mxCell>
                <mxCell id="EN4MdzZvorRHUhUFWQZ9-19" value="48px" style="edgeLabel;html=1;align=center;verticalAlign=middle;resizable=0;points=[];" parent="EN4MdzZvorRHUhUFWQZ9-13" vertex="1" connectable="0">
                    <mxGeometry x="-0.1063" y="2" relative="1" as="geometry">
                        <mxPoint x="9" as="offset"/>
                    </mxGeometry>
                </mxCell>
                <mxCell id="EN4MdzZvorRHUhUFWQZ9-16" value="" style="endArrow=none;html=1;rounded=0;" parent="1" edge="1">
                    <mxGeometry width="50" height="50" relative="1" as="geometry">
                        <mxPoint x="240" y="460" as="sourcePoint"/>
                        <mxPoint x="420" y="460" as="targetPoint"/>
                    </mxGeometry>
                </mxCell>
                <mxCell id="EN4MdzZvorRHUhUFWQZ9-17" value="" style="endArrow=none;html=1;rounded=0;" parent="1" edge="1">
                    <mxGeometry width="50" height="50" relative="1" as="geometry">
                        <mxPoint x="420" y="280" as="sourcePoint"/>
                        <mxPoint x="420" y="460" as="targetPoint"/>
                    </mxGeometry>
                </mxCell>
                <mxCell id="EN4MdzZvorRHUhUFWQZ9-18" value="" style="endArrow=none;html=1;rounded=0;" parent="1" edge="1">
                    <mxGeometry width="50" height="50" relative="1" as="geometry">
                        <mxPoint x="240" y="280" as="sourcePoint"/>
                        <mxPoint x="240" y="460" as="targetPoint"/>
                    </mxGeometry>
                </mxCell>
                <mxCell id="EN4MdzZvorRHUhUFWQZ9-20" value="48px" style="edgeLabel;html=1;align=center;verticalAlign=middle;resizable=0;points=[];" parent="EN4MdzZvorRHUhUFWQZ9-18" vertex="1" connectable="0">
                    <mxGeometry x="-0.0317" relative="1" as="geometry">
                        <mxPoint as="offset"/>
                    </mxGeometry>
                </mxCell>
                <mxCell id="EN4MdzZvorRHUhUFWQZ9-37" value="" style="group" parent="1" vertex="1" connectable="0">
                    <mxGeometry x="310" y="350" width="20" height="40" as="geometry"/>
                </mxCell>
                <mxCell id="EN4MdzZvorRHUhUFWQZ9-23" value="" style="endArrow=none;html=1;rounded=0;" parent="EN4MdzZvorRHUhUFWQZ9-37" edge="1">
                    <mxGeometry width="50" height="50" relative="1" as="geometry">
                        <mxPoint y="40" as="sourcePoint"/>
                        <mxPoint as="targetPoint"/>
                    </mxGeometry>
                </mxCell>
                <mxCell id="EN4MdzZvorRHUhUFWQZ9-36" value="11px" style="edgeLabel;html=1;align=center;verticalAlign=middle;resizable=0;points=[];horizontal=0;fontSize=8;" parent="EN4MdzZvorRHUhUFWQZ9-23" vertex="1" connectable="0">
                    <mxGeometry x="-0.0143" y="2" relative="1" as="geometry">
                        <mxPoint as="offset"/>
                    </mxGeometry>
                </mxCell>
                <mxCell id="EN4MdzZvorRHUhUFWQZ9-24" value="" style="endArrow=none;html=1;rounded=0;" parent="EN4MdzZvorRHUhUFWQZ9-37" edge="1">
                    <mxGeometry width="50" height="50" relative="1" as="geometry">
                        <mxPoint x="20" y="40" as="sourcePoint"/>
                        <mxPoint x="20" as="targetPoint"/>
                    </mxGeometry>
                </mxCell>
                <mxCell id="EN4MdzZvorRHUhUFWQZ9-25" value="" style="endArrow=none;html=1;rounded=0;" parent="EN4MdzZvorRHUhUFWQZ9-37" edge="1">
                    <mxGeometry width="50" height="50" relative="1" as="geometry">
                        <mxPoint x="20" as="sourcePoint"/>
                        <mxPoint as="targetPoint"/>
                    </mxGeometry>
                </mxCell>
                <mxCell id="EN4MdzZvorRHUhUFWQZ9-35" value="8px" style="edgeLabel;html=1;align=center;verticalAlign=middle;resizable=0;points=[];fontSize=8;" parent="EN4MdzZvorRHUhUFWQZ9-25" vertex="1" connectable="0">
                    <mxGeometry x="0.1571" relative="1" as="geometry">
                        <mxPoint x="1" as="offset"/>
                    </mxGeometry>
                </mxCell>
                <mxCell id="EN4MdzZvorRHUhUFWQZ9-26" value="" style="endArrow=none;html=1;rounded=0;" parent="EN4MdzZvorRHUhUFWQZ9-37" edge="1">
                    <mxGeometry width="50" height="50" relative="1" as="geometry">
                        <mxPoint x="20" y="40" as="sourcePoint"/>
                        <mxPoint y="40" as="targetPoint"/>
                    </mxGeometry>
                </mxCell>
                <mxCell id="EN4MdzZvorRHUhUFWQZ9-27" value="0" style="text;html=1;align=center;verticalAlign=middle;whiteSpace=wrap;rounded=0;fontSize=28;" parent="EN4MdzZvorRHUhUFWQZ9-37" vertex="1">
                    <mxGeometry x="5" y="9" width="10" height="20" as="geometry"/>
                </mxCell>
                <mxCell id="EN4MdzZvorRHUhUFWQZ9-38" value="" style="group" parent="1" vertex="1" connectable="0">
                    <mxGeometry x="330" y="350" width="20" height="40" as="geometry"/>
                </mxCell>
                <mxCell id="EN4MdzZvorRHUhUFWQZ9-39" value="" style="endArrow=none;html=1;rounded=0;" parent="EN4MdzZvorRHUhUFWQZ9-38" edge="1">
                    <mxGeometry width="50" height="50" relative="1" as="geometry">
                        <mxPoint y="40" as="sourcePoint"/>
                        <mxPoint as="targetPoint"/>
                    </mxGeometry>
                </mxCell>
                <mxCell id="EN4MdzZvorRHUhUFWQZ9-41" value="" style="endArrow=none;html=1;rounded=0;" parent="EN4MdzZvorRHUhUFWQZ9-38" edge="1">
                    <mxGeometry width="50" height="50" relative="1" as="geometry">
                        <mxPoint x="20" y="40" as="sourcePoint"/>
                        <mxPoint x="20" as="targetPoint"/>
                    </mxGeometry>
                </mxCell>
                <mxCell id="EN4MdzZvorRHUhUFWQZ9-42" value="" style="endArrow=none;html=1;rounded=0;" parent="EN4MdzZvorRHUhUFWQZ9-38" edge="1">
                    <mxGeometry width="50" height="50" relative="1" as="geometry">
                        <mxPoint x="20" as="sourcePoint"/>
                        <mxPoint as="targetPoint"/>
                    </mxGeometry>
                </mxCell>
                <mxCell id="EN4MdzZvorRHUhUFWQZ9-43" value="8px" style="edgeLabel;html=1;align=center;verticalAlign=middle;resizable=0;points=[];fontSize=8;" parent="EN4MdzZvorRHUhUFWQZ9-42" vertex="1" connectable="0">
                    <mxGeometry x="0.1571" relative="1" as="geometry">
                        <mxPoint x="1" as="offset"/>
                    </mxGeometry>
                </mxCell>
                <mxCell id="EN4MdzZvorRHUhUFWQZ9-44" value="" style="endArrow=none;html=1;rounded=0;" parent="EN4MdzZvorRHUhUFWQZ9-38" edge="1">
                    <mxGeometry width="50" height="50" relative="1" as="geometry">
                        <mxPoint x="20" y="40" as="sourcePoint"/>
                        <mxPoint y="40" as="targetPoint"/>
                    </mxGeometry>
                </mxCell>
                <mxCell id="EN4MdzZvorRHUhUFWQZ9-45" value="0" style="text;html=1;align=center;verticalAlign=middle;whiteSpace=wrap;rounded=0;fontSize=28;" parent="EN4MdzZvorRHUhUFWQZ9-38" vertex="1">
                    <mxGeometry x="5" y="9" width="10" height="20" as="geometry"/>
                </mxCell>
                <mxCell id="EN4MdzZvorRHUhUFWQZ9-46" value="" style="endArrow=classic;startArrow=classic;html=1;rounded=0;" parent="1" edge="1">
                    <mxGeometry width="50" height="50" relative="1" as="geometry">
                        <mxPoint x="250" y="360" as="sourcePoint"/>
                        <mxPoint x="300" y="360" as="targetPoint"/>
                    </mxGeometry>
                </mxCell>
                <mxCell id="EN4MdzZvorRHUhUFWQZ9-47" value="16px" style="edgeLabel;html=1;align=center;verticalAlign=middle;resizable=0;points=[];" parent="EN4MdzZvorRHUhUFWQZ9-46" vertex="1" connectable="0">
                    <mxGeometry x="-0.1029" relative="1" as="geometry">
                        <mxPoint y="-10" as="offset"/>
                    </mxGeometry>
                </mxCell>
                <mxCell id="EN4MdzZvorRHUhUFWQZ9-48" value="" style="endArrow=classic;startArrow=classic;html=1;rounded=0;" parent="1" edge="1">
                    <mxGeometry width="50" height="50" relative="1" as="geometry">
                        <mxPoint x="360" y="360" as="sourcePoint"/>
                        <mxPoint x="410" y="360" as="targetPoint"/>
                    </mxGeometry>
                </mxCell>
                <mxCell id="EN4MdzZvorRHUhUFWQZ9-49" value="16px" style="edgeLabel;html=1;align=center;verticalAlign=middle;resizable=0;points=[];" parent="EN4MdzZvorRHUhUFWQZ9-48" vertex="1" connectable="0">
                    <mxGeometry x="-0.1029" relative="1" as="geometry">
                        <mxPoint y="-10" as="offset"/>
                    </mxGeometry>
                </mxCell>
                <mxCell id="EN4MdzZvorRHUhUFWQZ9-50" value="" style="endArrow=classic;startArrow=classic;html=1;rounded=0;" parent="1" edge="1">
                    <mxGeometry width="50" height="50" relative="1" as="geometry">
                        <mxPoint x="330" y="340" as="sourcePoint"/>
                        <mxPoint x="330" y="290" as="targetPoint"/>
                    </mxGeometry>
                </mxCell>
                <mxCell id="EN4MdzZvorRHUhUFWQZ9-51" value="19px" style="edgeLabel;html=1;align=center;verticalAlign=middle;resizable=0;points=[];horizontal=0;" parent="EN4MdzZvorRHUhUFWQZ9-50" vertex="1" connectable="0">
                    <mxGeometry x="0.1543" relative="1" as="geometry">
                        <mxPoint y="6" as="offset"/>
                    </mxGeometry>
                </mxCell>
                <mxCell id="EN4MdzZvorRHUhUFWQZ9-52" value="" style="endArrow=classic;startArrow=classic;html=1;rounded=0;" parent="1" edge="1">
                    <mxGeometry width="50" height="50" relative="1" as="geometry">
                        <mxPoint x="329.43" y="450" as="sourcePoint"/>
                        <mxPoint x="329.43" y="400" as="targetPoint"/>
                    </mxGeometry>
                </mxCell>
                <mxCell id="EN4MdzZvorRHUhUFWQZ9-53" value="18px" style="edgeLabel;html=1;align=center;verticalAlign=middle;resizable=0;points=[];horizontal=0;" parent="EN4MdzZvorRHUhUFWQZ9-52" vertex="1" connectable="0">
                    <mxGeometry x="0.1543" relative="1" as="geometry">
                        <mxPoint y="6" as="offset"/>
                    </mxGeometry>
                </mxCell>
                <mxCell id="EN4MdzZvorRHUhUFWQZ9-54" value="" style="endArrow=classic;startArrow=classic;html=1;rounded=0;" parent="1" edge="1">
                    <mxGeometry width="50" height="50" relative="1" as="geometry">
                        <mxPoint x="290" y="280" as="sourcePoint"/>
                        <mxPoint x="290" y="250" as="targetPoint"/>
                    </mxGeometry>
                </mxCell>
                <mxCell id="EN4MdzZvorRHUhUFWQZ9-55" value="3px" style="edgeLabel;html=1;align=center;verticalAlign=middle;resizable=0;points=[];fontSize=9;" parent="EN4MdzZvorRHUhUFWQZ9-54" vertex="1" connectable="0">
                    <mxGeometry x="-0.0667" y="2" relative="1" as="geometry">
                        <mxPoint x="2" as="offset"/>
                    </mxGeometry>
                </mxCell>
                <mxCell id="EN4MdzZvorRHUhUFWQZ9-56" value="" style="endArrow=classic;startArrow=classic;html=1;rounded=0;" parent="1" edge="1">
                    <mxGeometry width="50" height="50" relative="1" as="geometry">
                        <mxPoint x="310" y="490" as="sourcePoint"/>
                        <mxPoint x="310" y="460" as="targetPoint"/>
                    </mxGeometry>
                </mxCell>
                <mxCell id="EN4MdzZvorRHUhUFWQZ9-57" value="4px" style="edgeLabel;html=1;align=center;verticalAlign=middle;resizable=0;points=[];fontSize=9;" parent="EN4MdzZvorRHUhUFWQZ9-56" vertex="1" connectable="0">
                    <mxGeometry x="-0.0667" y="2" relative="1" as="geometry">
                        <mxPoint as="offset"/>
                    </mxGeometry>
                </mxCell>
                <mxCell id="EN4MdzZvorRHUhUFWQZ9-59" value="" style="endArrow=classic;startArrow=classic;html=1;rounded=0;" parent="1" edge="1">
                    <mxGeometry width="50" height="50" relative="1" as="geometry">
                        <mxPoint x="550" y="490" as="sourcePoint"/>
                        <mxPoint x="550" y="250" as="targetPoint"/>
                    </mxGeometry>
                </mxCell>
                <mxCell id="EN4MdzZvorRHUhUFWQZ9-60" value="5 chars" style="edgeLabel;html=1;align=center;verticalAlign=middle;resizable=0;points=[];" parent="EN4MdzZvorRHUhUFWQZ9-59" vertex="1" connectable="0">
                    <mxGeometry x="0.1238" relative="1" as="geometry">
                        <mxPoint x="20" y="4" as="offset"/>
                    </mxGeometry>
                </mxCell>
                <mxCell id="EN4MdzZvorRHUhUFWQZ9-61" value="" style="endArrow=classic;startArrow=classic;html=1;rounded=0;" parent="1" edge="1">
                    <mxGeometry width="50" height="50" relative="1" as="geometry">
                        <mxPoint x="480" y="200" as="sourcePoint"/>
                        <mxPoint x="240" y="200" as="targetPoint"/>
                    </mxGeometry>
                </mxCell>
                <mxCell id="EN4MdzZvorRHUhUFWQZ9-62" value="7 chars" style="edgeLabel;html=1;align=center;verticalAlign=middle;resizable=0;points=[];" parent="EN4MdzZvorRHUhUFWQZ9-61" vertex="1" connectable="0">
                    <mxGeometry x="0.1238" relative="1" as="geometry">
                        <mxPoint x="20" as="offset"/>
                    </mxGeometry>
                </mxCell>
                <mxCell id="EN4MdzZvorRHUhUFWQZ9-65" value="" style="endArrow=classic;startArrow=classic;html=1;rounded=0;" parent="1" edge="1">
                    <mxGeometry width="50" height="50" relative="1" as="geometry">
                        <mxPoint x="480" y="420" as="sourcePoint"/>
                        <mxPoint x="420" y="420" as="targetPoint"/>
                    </mxGeometry>
                </mxCell>
                <mxCell id="EN4MdzZvorRHUhUFWQZ9-66" value="8px" style="edgeLabel;html=1;align=center;verticalAlign=middle;resizable=0;points=[];fontSize=9;" parent="EN4MdzZvorRHUhUFWQZ9-65" vertex="1" connectable="0">
                    <mxGeometry x="-0.0667" y="2" relative="1" as="geometry">
                        <mxPoint y="8" as="offset"/>
                    </mxGeometry>
                </mxCell>
            </root>
        </mxGraphModel>
    </diagram>
</mxfile>